<svg version="1.1" xmlns="http://www.w3.org/2000/svg" viewBox="0 0 657.6225418638965 204.44680210384286" width="1315.245083727793" height="408.8936042076857">
  <!-- svg-source:excalidraw -->
  
  <defs>
    <style>
      @font-face {
        font-family: "Virgil";
        src: url("https://unpkg.com/@zsviczian/excalidraw@0.11.0-obsidian-25/dist/excalidraw-assets/Virgil.woff2");
      }
      @font-face {
        font-family: "Cascadia";
        src: url("https://unpkg.com/@zsviczian/excalidraw@0.11.0-obsidian-25/dist/excalidraw-assets/Cascadia.woff2");
      }
    </style>
  </defs>
  <rect x="0" y="0" width="657.6225418638965" height="204.44680210384286" fill="#ffffff"/><g stroke-linecap="round" transform="translate(10 10) rotate(0 128.5952685943002 85.70439748139015)"><path d="M0 0 C51.73 0, 103.47 0, 257.19 0 M0 0 C82.5 0, 165 0, 257.19 0 M257.19 0 C257.19 66.28, 257.19 132.56, 257.19 171.41 M257.19 0 C257.19 63.08, 257.19 126.16, 257.19 171.41 M257.19 171.41 C161.13 171.41, 65.08 171.41, 0 171.41 M257.19 171.41 C159.04 171.41, 60.9 171.41, 0 171.41 M0 171.41 C0 126.9, 0 82.4, 0 0 M0 171.41 C0 128.57, 0 85.74, 0 0" stroke="#000000" stroke-width="1" fill="none"/></g><g transform="translate(78.31744384765625 70.45488576264017) rotate(0 42 11.5)"><text x="0" y="19" font-family="Helvetica, Segoe UI Emoji" font-size="20px" fill="#000000" text-anchor="start" style="white-space: pre;" direction="ltr">rectangle</text></g><g stroke-linecap="round" transform="translate(475.62254186389646 40.267458246065246) rotate(0 86 77.0896719288888)"><path d="M87 0 C120.11 30.38, 153.21 60.76, 172 78 M87 0 C119.42 29.75, 151.84 59.5, 172 78 M172 78 C148.61 98.96, 125.23 119.92, 87 154.18 M172 78 C144.48 102.66, 116.96 127.33, 87 154.18 M87 154.18 C61.18 131.57, 35.36 108.97, 0 78 M87 154.18 C69.01 138.43, 51.02 122.67, 0 78 M0 78 C23.12 57.28, 46.23 36.55, 87 0 M0 78 C21.14 59.05, 42.28 40.09, 87 0" stroke="#000000" stroke-width="1" fill="none"/></g><g stroke-linecap="round"><g transform="translate(275.0437751547158 117.12591897876413) rotate(0 99.12819630084493 0.15154253117233907)"><path d="M0 0 C33.04 0.05, 165.21 0.25, 198.26 0.3 M0 0 C33.04 0.05, 165.21 0.25, 198.26 0.3" stroke="#000000" stroke-width="1" fill="none"/></g><g transform="translate(275.0437751547158 117.12591897876413) rotate(0 99.12819630084493 0.15154253117233907)"><path d="M170.05 10.52 C178.63 7.41, 187.21 4.3, 198.26 0.3 M170.05 10.52 C180.71 6.66, 191.37 2.8, 198.26 0.3" stroke="#000000" stroke-width="1" fill="none"/></g><g transform="translate(275.0437751547158 117.12591897876413) rotate(0 99.12819630084493 0.15154253117233907)"><path d="M170.08 -10 C178.65 -6.87, 187.23 -3.73, 198.26 0.3 M170.08 -10 C180.73 -6.11, 191.38 -2.21, 198.26 0.3" stroke="#000000" stroke-width="1" fill="none"/></g></g><g transform="translate(480.62254186389646 105.85713017495405) rotate(0 81 11.5)"><text x="81" y="19" font-family="Helvetica, Segoe UI Emoji" font-size="20px" fill="#000000" text-anchor="middle" style="white-space: pre;" direction="ltr">t1</text></g></svg>