<svg version="1.1" xmlns="http://www.w3.org/2000/svg" viewBox="0 0 311.94759260454697 131.75260599793654" width="623.8951852090939" height="263.5052119958731">
  <!-- svg-source:excalidraw -->
  
  <defs>
    <style>
      @font-face {
        font-family: "Virgil";
        src: url("https://unpkg.com/@zsviczian/excalidraw@0.11.0-obsidian-25/dist/excalidraw-assets/Virgil.woff2");
      }
      @font-face {
        font-family: "Cascadia";
        src: url("https://unpkg.com/@zsviczian/excalidraw@0.11.0-obsidian-25/dist/excalidraw-assets/Cascadia.woff2");
      }
    </style>
  </defs>
  <rect x="0" y="0" width="311.94759260454697" height="131.75260599793654" fill="#ffffff"/><g stroke-linecap="round" transform="translate(10 10) rotate(0 83.83966754761997 55.87630299896827)"><path d="M0 0 C33.73 0, 67.46 0, 167.68 0 M0 0 C53.79 0, 107.58 0, 167.68 0 M167.68 0 C167.68 43.21, 167.68 86.42, 167.68 111.75 M167.68 0 C167.68 41.13, 167.68 82.25, 167.68 111.75 M167.68 111.75 C105.05 111.75, 42.43 111.75, 0 111.75 M167.68 111.75 C103.69 111.75, 39.7 111.75, 0 111.75 M0 111.75 C0 82.74, 0 53.72, 0 0 M0 111.75 C0 83.83, 0 55.9, 0 0" stroke="#000000" stroke-width="1" fill="none"/></g><g transform="translate(54.54061057223481 47.9811044687371) rotate(0 33.5 9.5)"><text x="0" y="15" font-family="Helvetica, Segoe UI Emoji" font-size="16px" fill="#000000" text-anchor="start" style="white-space: pre;" direction="ltr">rectangle</text></g><g stroke-linecap="round" transform="translate(257.8127884459277 38.91202001364337) rotate(0 22.06740207930964 19.781032402521618)"><path d="M23 0 C31.23 7.79, 39.46 15.58, 44.13 20 M23 0 C31.06 7.63, 39.12 15.26, 44.13 20 M44.13 20 C38.32 25.38, 32.51 30.76, 23 39.56 M44.13 20 C37.29 26.33, 30.45 32.67, 23 39.56 M23 39.56 C16.17 33.76, 9.35 27.95, 0 20 M23 39.56 C18.24 35.52, 13.49 31.47, 0 20 M0 20 C6.11 14.69, 12.22 9.37, 23 0 M0 20 C5.59 15.14, 11.18 10.28, 23 0" stroke="#000000" stroke-width="1" fill="none"/></g><g stroke-linecap="round"><g transform="translate(186.26192428683433 63.140463437937285) rotate(0 36.50982575905489 -0.8939256605776507)"><path d="M0 0 C12.17 -0.3, 60.85 -1.49, 73.02 -1.79 M0 0 C12.17 -0.3, 60.85 -1.49, 73.02 -1.79" stroke="#000000" stroke-width="1" fill="none"/></g><g transform="translate(186.26192428683433 63.140463437937285) rotate(0 36.50982575905489 -0.8939256605776507)"><path d="M45.09 9.16 C53.59 5.83, 62.09 2.5, 73.02 -1.79 M45.09 9.16 C55.64 5.02, 66.2 0.89, 73.02 -1.79" stroke="#000000" stroke-width="1" fill="none"/></g><g transform="translate(186.26192428683433 63.140463437937285) rotate(0 36.50982575905489 -0.8939256605776507)"><path d="M44.59 -11.36 C53.24 -8.44, 61.89 -5.53, 73.02 -1.79 M44.59 -11.36 C55.33 -7.74, 66.08 -4.12, 73.02 -1.79" stroke="#000000" stroke-width="1" fill="none"/></g></g><g transform="translate(262.8127884459277 49.19305241616499) rotate(0 17.06740207930964 9.5)"><text x="17.06740207930964" y="15" font-family="Helvetica, Segoe UI Emoji" font-size="16.063437251114955px" fill="#000000" text-anchor="middle" style="white-space: pre;" direction="ltr">t1</text></g></svg>